<?xml version="1.0" encoding="UTF-8" standalone="no" ?>
<!DOCTYPE svg PUBLIC "-//W3C//DTD SVG 1.1//EN" "http://www.w3.org/Graphics/SVG/1.1/DTD/svg11.dtd">
<svg xmlns="http://www.w3.org/2000/svg" xmlns:xlink="http://www.w3.org/1999/xlink" version="1.1" width="512" height="512" viewBox="0 0 512 512" xml:space="preserve">
<desc>Created with Fabric.js 5.3.0</desc>
<defs>
</defs>
<g transform="matrix(21.3333333333 0 0 21.3333333333 256 256)" id="VM7h8Agjxos673ejSnu3Z"  >
<path style="stroke: none; stroke-width: 1; stroke-dasharray: none; stroke-linecap: butt; stroke-dashoffset: 0; stroke-linejoin: miter; stroke-miterlimit: 4; fill: rgb(255,255,255); fill-rule: nonzero; opacity: 1;"  transform=" translate(-12.0017814105, -12.005)" d="M 10 19 C 10 17.9 10.9 17 12 17 C 13.1 17 14 17.9 14 19 C 14 20.1 13.1 21 12 21 C 10.9 21 10 20.1 10 19 Z M 23.68 9.54 C 24.09 9.159999999999998 24.11 8.53 23.73 8.129999999999999 C 20.71 4.879999999999999 16.43 3.009999999999999 12 3.009999999999999 C 7.57 3.009999999999999 3.29 4.87 0.27 8.12 C -0.10999999999999999 8.53 -0.07999999999999996 9.16 0.32 9.53 C 0.72 9.91 1.36 9.879999999999999 1.73 9.479999999999999 C 4.37 6.629999999999999 8.11 4.999999999999998 12 4.999999999999998 C 15.89 4.999999999999998 19.62 6.629999999999998 22.27 9.479999999999999 C 22.47 9.69 22.73 9.799999999999999 23 9.799999999999999 C 23.24 9.799999999999999 23.49 9.709999999999999 23.68 9.53 Z M 18.67 14.349999999999998 C 19.080000000000002 13.969999999999997 19.1 13.339999999999998 18.720000000000002 12.939999999999998 C 16.990000000000002 11.069999999999997 14.540000000000003 9.999999999999998 12.000000000000004 9.999999999999998 C 9.460000000000004 9.999999999999998 7.010000000000003 11.069999999999999 5.280000000000004 12.939999999999998 C 4.900000000000004 13.339999999999998 4.930000000000004 13.979999999999997 5.330000000000004 14.349999999999998 C 5.730000000000004 14.729999999999999 6.370000000000004 14.699999999999998 6.740000000000004 14.299999999999997 C 8.090000000000003 12.839999999999996 10.010000000000003 12.009999999999998 12.000000000000004 12.009999999999998 C 13.990000000000004 12.009999999999998 15.900000000000004 12.849999999999998 17.260000000000005 14.299999999999997 C 17.460000000000004 14.509999999999998 17.720000000000006 14.619999999999997 17.990000000000006 14.619999999999997 C 18.230000000000004 14.619999999999997 18.480000000000004 14.529999999999998 18.670000000000005 14.349999999999998 Z" stroke-linecap="round" />
</g>
</svg>